<svg width="54" height="20" viewBox="0 0 54 20" fill="none" xmlns="http://www.w3.org/2000/svg">
<path d="M0 -0.5H38C46.8366 -0.5 54 6.66344 54 15.5V19.5H16C7.16344 19.5 0 12.3366 0 3.5V-0.5Z" fill="#2962FF"/>
<path d="M22.0898 12.7734C21.8203 12.9531 21.4844 13.0996 21.082 13.2129C20.6836 13.3262 20.1836 13.4102 19.582 13.4648C18.9805 13.5195 18.2363 13.5508 17.3496 13.5586L15.9785 6.31055H17.0977L17.8184 10.0078L18.2461 9.92578C18.4805 9.87109 18.6738 9.80078 18.8262 9.71484C18.9785 9.625 19.0996 9.5 19.1895 9.33984C19.2637 9.21484 19.3203 9.06055 19.3594 8.87695C19.3984 8.69336 19.4277 8.47461 19.4473 8.2207L19.5938 6.31055H20.707L20.5254 8.23242C20.498 8.55664 20.4648 8.83789 20.4258 9.07617C20.3867 9.31055 20.3398 9.5 20.2852 9.64453C20.1875 9.9375 20.041 10.1641 19.8457 10.3242C19.6504 10.4805 19.3262 10.6191 18.873 10.7402L17.9941 10.9453L18.2812 12.457H18.4219C19.207 12.457 19.8359 12.4121 20.3086 12.3223C20.7812 12.2285 21.1543 12.084 21.4277 11.8887C21.6113 11.7559 21.7656 11.5918 21.8906 11.3965C22.0156 11.2012 22.1211 10.9434 22.207 10.623C22.293 10.3027 22.3652 9.89062 22.4238 9.38672L22.793 6.31055H23.9238L23.5488 9.3457C23.4707 10.0254 23.3691 10.5859 23.2441 11.0273C23.1191 11.4648 22.9629 11.8203 22.7754 12.0938C22.5918 12.3633 22.3633 12.5898 22.0898 12.7734ZM22.9746 4.55859C22.9746 4.43359 23.0215 4.32422 23.1152 4.23047C23.209 4.13672 23.3184 4.08984 23.4434 4.08984C23.5684 4.08984 23.6777 4.13672 23.7715 4.23047C23.8652 4.32422 23.9121 4.43359 23.9121 4.55859C23.9121 4.68359 23.8652 4.79297 23.7715 4.88672C23.6816 4.98047 23.5723 5.02734 23.4434 5.02734C23.3105 5.02734 23.1992 4.98047 23.1094 4.88672C23.0195 4.79297 22.9746 4.68359 22.9746 4.55859ZM29.6426 14.8535V15.5391H28.998V14.8535H28.3477V14.2324H30.2695V14.8535H29.6426ZM29.8711 7.30664V13.5H28.7871V7.30664H24.6855V6.31055H30.7676V7.30664H29.8711ZM35.4199 14.8535V15.5391H34.7754V14.8535H34.125V14.2324H36.0469V14.8535H35.4199ZM36.9551 9.27539C36.9551 8.56445 36.8105 8.05859 36.5215 7.75781C36.2363 7.45703 35.7344 7.30664 35.0156 7.30664H33.1992V13.5H32.1211V6.31055H35.0273C36.1055 6.31055 36.877 6.54102 37.3418 7.00195C37.8066 7.46289 38.0391 8.22461 38.0391 9.28711V13.5H36.9551V9.27539Z" fill="white"/>
</svg>
