<svg width="100" height="20" viewBox="0 0 100 20" fill="none" xmlns="http://www.w3.org/2000/svg">
<path d="M0 0H84C92.8366 0 100 7.16344 100 16V20H16C7.16345 20 0 12.8366 0 4V0Z" fill="#2962FF"/>
<path d="M20.6758 7.80664V14H19.5918V7.80664H15.4902V6.81055H21.5723V7.80664H20.6758ZM28.6621 13.0039V14H22.3867V13.0039H26.8047V9.77539C26.8047 9.05664 26.6582 8.54883 26.3652 8.25195C26.0762 7.95508 25.5742 7.80664 24.8594 7.80664H22.6621V6.81055H24.8711C25.9492 6.81055 26.7207 7.04102 27.1855 7.50195C27.6504 7.96289 27.8828 8.72461 27.8828 9.78711V13.0039H28.6621ZM31.1875 6.81055V14H30.1094V6.81055H31.1875ZM32.4473 13.0508C33.5293 13.0508 34.377 12.9512 34.9902 12.752L32.8164 6.81055H34.0059L35.9277 12.2949C36.2949 12.0332 36.5898 11.6836 36.8125 11.2461C37.0391 10.8047 37.2031 10.2266 37.3047 9.51172C37.4102 8.79688 37.4629 7.89648 37.4629 6.81055H38.5938C38.5938 8.61523 38.4023 10.0293 38.0195 11.0527C37.7617 11.7324 37.4004 12.2949 36.9355 12.7402C36.4707 13.1816 35.8711 13.5215 35.1367 13.7598C34.4062 13.9941 33.5098 14.1387 32.4473 14.1934V13.0508ZM43.4629 13.0508C44.2129 12.7734 44.8535 12.4219 45.3848 11.9961C45.9199 11.5742 46.3262 11.1133 46.6035 10.6133C46.8848 10.1133 47.0254 9.60547 47.0254 9.08984C47.0254 8.23438 46.5684 7.80664 45.6543 7.80664H42.7422V4.24414H43.8203V6.81055H45.7656C47.332 6.81055 48.1152 7.50781 48.1152 8.90234C48.1152 9.62109 47.9434 10.3105 47.5996 10.9707C47.2559 11.6309 46.7715 12.2246 46.1465 12.752C45.4043 13.3848 44.5098 13.8887 43.4629 14.2637V13.0508ZM48.9355 13.0508C50.0176 13.0508 50.8652 12.9512 51.4785 12.752L49.3047 6.81055H50.4941L52.416 12.2949C52.7832 12.0332 53.0781 11.6836 53.3008 11.2461C53.5273 10.8047 53.6914 10.2266 53.793 9.51172C53.8984 8.79688 53.9512 7.89648 53.9512 6.81055H55.082C55.082 8.61523 54.8906 10.0293 54.5078 11.0527C54.25 11.7324 53.8887 12.2949 53.4238 12.7402C52.959 13.1816 52.3594 13.5215 51.625 13.7598C50.8945 13.9941 49.998 14.1387 48.9355 14.1934V13.0508ZM60.918 6.81055V16.2559H59.8398V6.81055H60.918ZM64.0352 6.81055V14H62.957V6.81055H64.0352ZM70.6973 10.5078C70.6973 12.8359 69.5957 14 67.3926 14H65.5234V13.0039H67.416C68.1621 13.0039 68.7129 12.7969 69.0684 12.3828C69.4238 11.9688 69.6016 11.3477 69.6016 10.5195V10.291C69.6016 9.45898 69.4219 8.83789 69.0625 8.42773C68.707 8.01367 68.1582 7.80664 67.416 7.80664H65.5234V6.81055H67.3926C69.5957 6.81055 70.6973 7.97461 70.6973 10.3027V10.5078ZM76.4219 7.80664V14H75.3379V7.80664H71.2363V6.81055H77.3184V7.80664H76.4219ZM78.2559 13.0508C79.3379 13.0508 80.1855 12.9512 80.7988 12.752L78.625 6.81055H79.8145L81.7363 12.2949C82.1035 12.0332 82.3984 11.6836 82.6211 11.2461C82.8477 10.8047 83.0117 10.2266 83.1133 9.51172C83.2188 8.79688 83.2715 7.89648 83.2715 6.81055H84.4023C84.4023 8.61523 84.2109 10.0293 83.8281 11.0527C83.5703 11.7324 83.209 12.2949 82.7441 12.7402C82.2793 13.1816 81.6797 13.5215 80.9453 13.7598C80.2148 13.9941 79.3184 14.1387 78.2559 14.1934V13.0508Z" fill="white"/>
</svg>
